<svg width="593" height="200" viewBox="0 0 593 200" fill="none" xmlns="http://www.w3.org/2000/svg">
<path d="M0.120026 199.339L216.12 170.839V93.8392L239.62 99.3392V159.555L251.12 157.839V101.339L274.12 105.839V155.839L285.12 153.839V92.8392L240.12 73.3392L184.12 91.8392V153.839L0.120026 199.339Z" fill="black"/>
<path d="M327.62 170.839L364.62 174.339L364.12 0.839172L310.12 29.8392V110.839L327.62 118.839V170.839Z" fill="black"/>
<path d="M369.62 0.839172L424.12 30.3392V179.339L400.12 176.339V39.8392L369.62 23.8392V0.839172Z" fill="black"/>
<path d="M437.12 180.839L592.62 193.839L467.12 167.339V112.839L437.12 96.8392V180.839Z" fill="black"/>
<path d="M0.120026 199.339L216.12 170.839V93.8392L239.62 99.3392V159.555L251.12 157.839V101.339L274.12 105.839V155.839L285.12 153.839V92.8392L240.12 73.3392L184.12 91.8392V153.839L0.120026 199.339Z" stroke="black"/>
<path d="M327.62 170.839L364.62 174.339L364.12 0.839172L310.12 29.8392V110.839L327.62 118.839V170.839Z" stroke="black"/>
<path d="M369.62 0.839172L424.12 30.3392V179.339L400.12 176.339V39.8392L369.62 23.8392V0.839172Z" stroke="black"/>
<path d="M437.12 180.839L592.62 193.839L467.12 167.339V112.839L437.12 96.8392V180.839Z" stroke="black"/>
</svg>
