<svg width="337" height="29" viewBox="0 0 337 29" fill="none" xmlns="http://www.w3.org/2000/svg">
<path d="M0.5 27.6453H7V0.645339H0.5V27.6453Z" fill="black"/>
<path d="M68 27.6453H75.5L86 1.14534H80L72 19.6453L64 1.14534H57L68 27.6453Z" fill="black"/>
<path d="M20 27.6453H27V12.6453L40.5 27.6453H47V1.14534H40.5V16.6453L26 1.14534H20V27.6453Z" fill="black"/>
<path d="M96 27.6453H117.5V23.1453H103V16.6453H115.5V12.1453H103V6.14534H117.5V1.14534H96V27.6453Z" fill="black"/>
<path d="M127.5 25.6453L129 21.6453C141.038 23.0764 142.683 24.3345 143.5 20.1453C144.317 15.9562 128.164 16.6476 128 7.64534C127.836 -1.35689 141.233 -0.14289 149.5 2.14534L148.5 6.14534C137.743 4.38289 134.5 4.14524 134.5 7.64534C134.5 11.1454 151 12.4072 151 20.1453C151 27.8835 142.658 29.3493 127.5 25.6453Z" fill="black"/>
<path d="M168 27.6453H175V6.14534H184V1.14534H159V6.14534H168V27.6453Z" fill="black"/>
<path d="M194.5 27.6453H200.5V12.6454L209 23.6454H213L220.5 12.6454V27.6454L227.5 27.6453V1.14534H220.5L211 16.1454L200.5 1.14534H194.5V27.6453Z" fill="black"/>
<path d="M240.5 27.6453H262V23.1453H247.5V16.6453H260V12.1453H247.5V6.14534H262V1.14534H240.5V27.6453Z" fill="black"/>
<path d="M274 27.6453H281V12.6453L294.5 27.6453H301V1.14534H294.5V16.6453L280 1.14534H274V27.6453Z" fill="black"/>
<path d="M320.5 27.6453H327.5V6.14534H336.5V1.14534H311.5V6.14534H320.5V27.6453Z" fill="black"/>
<path d="M0.5 27.6453H7V0.645339H0.5V27.6453Z" stroke="black"/>
<path d="M68 27.6453H75.5L86 1.14534H80L72 19.6453L64 1.14534H57L68 27.6453Z" stroke="black"/>
<path d="M20 27.6453H27V12.6453L40.5 27.6453H47V1.14534H40.5V16.6453L26 1.14534H20V27.6453Z" stroke="black"/>
<path d="M96 27.6453H117.5V23.1453H103V16.6453H115.5V12.1453H103V6.14534H117.5V1.14534H96V27.6453Z" stroke="black"/>
<path d="M127.5 25.6453L129 21.6453C141.038 23.0764 142.683 24.3345 143.5 20.1453C144.317 15.9562 128.164 16.6476 128 7.64534C127.836 -1.35689 141.233 -0.14289 149.5 2.14534L148.5 6.14534C137.743 4.38289 134.5 4.14524 134.5 7.64534C134.5 11.1454 151 12.4072 151 20.1453C151 27.8835 142.658 29.3493 127.5 25.6453Z" stroke="black"/>
<path d="M168 27.6453H175V6.14534H184V1.14534H159V6.14534H168V27.6453Z" stroke="black"/>
<path d="M194.5 27.6453H200.5V12.6454L209 23.6454H213L220.5 12.6454V27.6454L227.5 27.6453V1.14534H220.5L211 16.1454L200.5 1.14534H194.5V27.6453Z" stroke="black"/>
<path d="M240.5 27.6453H262V23.1453H247.5V16.6453H260V12.1453H247.5V6.14534H262V1.14534H240.5V27.6453Z" stroke="black"/>
<path d="M274 27.6453H281V12.6453L294.5 27.6453H301V1.14534H294.5V16.6453L280 1.14534H274V27.6453Z" stroke="black"/>
<path d="M320.5 27.6453H327.5V6.14534H336.5V1.14534H311.5V6.14534H320.5V27.6453Z" stroke="black"/>
</svg>
